<?xml version="1.0" encoding="utf-8"?>
<!-- Generator: Adobe Illustrator 21.1.0, SVG Export Plug-In . SVG Version: 6.00 Build 0)  -->
<svg version="1.1" id="Слой_1" xmlns="http://www.w3.org/2000/svg" xmlns:xlink="http://www.w3.org/1999/xlink" x="0px" y="0px"
	 viewBox="0 0 572.2 68" style="enable-background:new 0 0 572.2 68;" xml:space="preserve">
<g>
	<path d="M8.1,60.5H0.7V23.4h3.7v-3.7h3.7V16h3.7v-3.7h3.7V8.6h7.4v3.7h3.7V16h3.7v3.7h3.7v3.7h3.7v37.1h-7.4V45.7H8.1V60.5z
		 M8.1,38.2h22.2V27.1h-3.7v-3.7h-3.7v-3.7h-7.4v3.7h-3.7v3.7H8.1V38.2z"/>
	<path d="M45.2,60.5V8.6h29.6v3.7h3.7V16h3.7v37.1h-3.7v3.7h-3.7v3.7H45.2z M52.6,16v37.1h18.5v-3.7h3.7V19.7h-3.7V16H52.6z"/>
	<path d="M145.2,38.2h-3.7v22.2h-7.4V8.6h29.6v3.7h3.7V16h3.7v14.8h-3.7v3.7h-3.7v3.7h-7.4v3.7h3.7v3.7h3.7v3.7h3.7v3.7h3.7v7.4
		h-7.4v-3.7H160v-3.7h-3.7v-3.7h-3.7v-3.7h-3.7v-3.7h-3.7V38.2z M141.5,16v14.8H160v-3.7h3.7v-7.4H160V16H141.5z"/>
	<path d="M215.6,8.6V16H186v14.8h22.2v7.4H186v14.8h29.6v7.4h-37.1V8.6H215.6z"/>
	<path d="M223,60.5V8.6h29.6v3.7h3.7V16h3.7v37.1h-3.7v3.7h-3.7v3.7H223z M230.4,16v37.1h18.5v-3.7h3.7V19.7h-3.7V16H230.4z"/>
	<path d="M315.6,45.7h-3.7V8.6h7.4v33.3h3.7v3.7h3.7v3.7h7.4v-3.7h3.7v-3.7h3.7V8.6h7.4v37.1h-3.7v3.7h-3.7v3.7h-3.7v3.7h-3.7v3.7
		h-7.4v-3.7h-3.7v-3.7h-3.7v-3.7h-3.7V45.7z"/>
	<path d="M363.8,60.5v-7.4h7.4V16h-7.4V8.6H386V16h-7.4v37.1h7.4v7.4H363.8z"/>
	<path d="M434.2,16h3.7v7.4h-7.4v-3.7h-3.7V16H412v3.7h-3.7v7.4h3.7v3.7h18.5v3.7h3.7v3.7h3.7v14.8h-3.7v3.7h-3.7v3.7h-22.2v-3.7
		h-3.7v-3.7h-3.7v-7.4h7.4v3.7h3.7v3.7h14.8v-3.7h3.7v-7.4h-3.7v-3.7h-18.5v-3.7h-3.7v-3.7h-3.7V16h3.7v-3.7h3.7V8.6h22.2v3.7h3.7
		V16z"/>
	<path d="M452.7,60.5v-7.4h7.4V16h-7.4V8.6H475V16h-7.4v37.1h7.4v7.4H452.7z"/>
	<path d="M497.2,12.3V8.6h22.2v3.7h3.7V16h3.7v37.1h-3.7v3.7h-3.7v3.7h-22.2v-3.7h-3.7v-3.7h-3.7V16h3.7v-3.7H497.2z M515.7,16
		h-14.8v3.7h-3.7v29.6h3.7v3.7h14.8v-3.7h3.7V19.7h-3.7V16z"/>
	<path d="M541.7,30.8v29.6h-7.4V8.6h7.4v11.1h3.7v3.7h3.7v3.7h3.7v3.7h3.7v3.7h3.7v3.7h3.7V8.6h7.4v51.9h-7.4V49.4h-3.7v-3.7h-3.7
		v-3.7h-3.7v-3.7h-3.7v-3.7h-3.7v-3.7H541.7z"/>
</g>
</svg>
