<?xml version="1.0" encoding="utf-8"?>
<!-- Generator: Adobe Illustrator 28.0.0, SVG Export Plug-In . SVG Version: 6.00 Build 0)  -->
<svg version="1.1" id="Слой_1" xmlns="http://www.w3.org/2000/svg" xmlns:xlink="http://www.w3.org/1999/xlink" x="0px" y="0px"
	 viewBox="0 0 572.2 68" style="enable-background:new 0 0 572.2 68;" xml:space="preserve">
<style type="text/css">
	.st0{fill:#1D1D1B;}
</style>
<g>
	<path class="st0" d="M6.9,57.1H0.2V23.5h3.4v-3.4h3.4v-3.4h3.4v-3.4h3.4v-3.4h6.7v3.4h3.4v3.4h3.4v3.4h3.4v3.4h3.4v33.6h-6.7V43.6
		H6.9V57.1z M6.9,36.9h20.2V26.8h-3.4v-3.4h-3.4v-3.4h-6.7v3.4h-3.4v3.4H6.9V36.9z"/>
	<path class="st0" d="M50.6,50.4H64V47h3.4v-3.4h6.7v6.7h-3.4v3.4h-3.4v3.4H47.2v-3.4h-3.4v-3.4h-3.4V16.8h3.4v-3.4h3.4v-3.4h20.2
		v3.4h3.4v3.4h3.4v6.7h-6.7v-3.4H64v-3.4H50.6v3.4h-3.4V47h3.4V50.4z"/>
	<path class="st0" d="M90.9,50.4h13.4V47h3.4v-3.4h6.7v6.7H111v3.4h-3.4v3.4H87.5v-3.4h-3.4v-3.4h-3.4V16.8h3.4v-3.4h3.4v-3.4h20.2
		v3.4h3.4v3.4h3.4v6.7h-6.7v-3.4h-3.4v-3.4H90.9v3.4h-3.4V47h3.4V50.4z"/>
	<path class="st0" d="M154.7,10.1v6.7h-26.9v13.4H148v6.7h-20.2v13.4h26.9v6.7h-33.6v-47H154.7z"/>
	<path class="st0" d="M168.1,30.2v26.9h-6.7v-47h6.7v10.1h3.4v3.4h3.4v3.4h3.4v3.4h3.4v3.4h3.4v3.4h3.4V10.1h6.7v47h-6.7V47h-3.4
		v-3.4h-3.4v-3.4h-3.4v-3.4h-3.4v-3.4h-3.4v-3.4H168.1z"/>
	<path class="st0" d="M231.9,16.8h3.4v6.7h-6.7v-3.4h-3.4v-3.4h-13.4v3.4h-3.4v6.7h3.4v3.4h16.8v3.4h3.4v3.4h3.4v13.4h-3.4v3.4h-3.4
		v3.4h-20.2v-3.4h-3.4v-3.4h-3.4v-6.7h6.7V47h3.4v3.4h13.4V47h3.4v-6.7h-3.4v-3.4h-16.8v-3.4h-3.4v-3.4h-3.4V16.8h3.4v-3.4h3.4v-3.4
		h20.2v3.4h3.4V16.8z"/>
	<path class="st0" d="M245.4,50.4H242V10.1h6.7V47h3.4v3.4h13.4V47h3.4V10.1h6.7v40.3h-3.4v3.4h-3.4v3.4h-20.2v-3.4h-3.4V50.4z"/>
	<path class="st0" d="M289,57.1h-6.7v-47h6.7v6.7h3.4v3.4h3.4v3.4h6.7v-3.4h3.4v-3.4h3.4v-6.7h6.7v47h-6.7V26.8h-3.4v3.4h-3.4v6.7
		h-6.7v-6.7h-3.4v-3.4H289V57.1z"/>
</g>
<g>
	<path class="st0" d="M357.3,43.6H354V10.1h6.7v30.2h3.4v3.4h3.4V47h6.7v-3.4h3.4v-3.4h3.4V10.1h6.7v33.6h-3.4V47h-3.4v3.4h-3.4v3.4
		h-3.4v3.4h-6.7v-3.4H364v-3.4h-3.4V47h-3.4V43.6z"/>
	<path class="st0" d="M397.6,57.1v-6.7h6.7V16.8h-6.7v-6.7h20.2v6.7h-6.7v33.6h6.7v6.7H397.6z"/>
	<path class="st0" d="M458.1,16.8h3.4v6.7h-6.7v-3.4h-3.4v-3.4h-13.4v3.4h-3.4v6.7h3.4v3.4h16.8v3.4h3.4v3.4h3.4v13.4h-3.4v3.4h-3.4
		v3.4h-20.2v-3.4h-3.4v-3.4h-3.4v-6.7h6.7V47h3.4v3.4h13.4V47h3.4v-6.7h-3.4v-3.4h-16.8v-3.4h-3.4v-3.4h-3.4V16.8h3.4v-3.4h3.4v-3.4
		h20.2v3.4h3.4V16.8z"/>
	<path class="st0" d="M471.5,57.1v-6.7h6.7V16.8h-6.7v-6.7h20.2v6.7h-6.7v33.6h6.7v6.7H471.5z"/>
	<path class="st0" d="M508.4,13.4v-3.4h20.2v3.4h3.4v3.4h3.4v33.6h-3.4v3.4h-3.4v3.4h-20.2v-3.4h-3.4v-3.4h-3.4V16.8h3.4v-3.4H508.4
		z M525.2,16.8h-13.4v3.4h-3.4V47h3.4v3.4h13.4V47h3.4V20.1h-3.4V16.8z"/>
	<path class="st0" d="M545.3,30.2v26.9h-6.7v-47h6.7v10.1h3.4v3.4h3.4v3.4h3.4v3.4h3.4v3.4h3.4v3.4h3.4V10.1h6.7v47h-6.7V47h-3.4
		v-3.4h-3.4v-3.4h-3.4v-3.4h-3.4v-3.4h-3.4v-3.4H545.3z"/>
</g>
</svg>
